<svg width="48" height="48" viewBox="0 0 48 48" fill="none" xmlns="http://www.w3.org/2000/svg">
<path d="M42 6H28C26.458 6 25.064 6.602 24 7.56C22.936 6.602 21.542 6 20 6H6C4.894 6 4 6.896 4 8V38C4 39.106 4.894 40 6 40H17.516C18.568 40 19.6 40.428 20.344 41.172L22.586 43.414C22.604 43.432 22.628 43.438 22.646 43.456C22.818 43.614 23.01 43.754 23.234 43.848C23.236 43.848 23.236 43.848 23.238 43.848C23.48 43.948 23.738 44 24 44C24.262 44 24.52 43.948 24.762 43.848C24.764 43.848 24.764 43.848 24.766 43.848C24.99 43.754 25.182 43.614 25.354 43.456C25.372 43.438 25.396 43.432 25.414 43.414L27.656 41.172C28.4 40.428 29.432 40 30.484 40H42C43.106 40 44 39.106 44 38V8C44 6.896 43.106 6 42 6ZM17.516 36H8V10H20C21.104 10 22 10.898 22 12V37.378C20.684 36.492 19.114 36 17.516 36ZM40 36H30.484C28.886 36 27.316 36.492 26 37.378V12C26 10.898 26.896 10 28 10H40V36Z" fill="#C6CBD2"/>
</svg>
