<svg width="28" height="28" viewBox="0 0 28 28" xmlns="http://www.w3.org/2000/svg">
<g id="Iconly/Curved/Camera">
<g id="Camera">
<path id="Stroke 2" fill-rule="evenodd" clip-rule="evenodd" d="M18.0111 14.5811C18.0111 12.5548 16.368 10.9116 14.3417 10.9116C12.3153 10.9116 10.6722 12.5548 10.6722 14.5811C10.6722 16.6074 12.3153 18.2506 14.3417 18.2506C16.368 18.2506 18.0111 16.6074 18.0111 14.5811Z" stroke="black" stroke-width="1.5" stroke-linecap="round" stroke-linejoin="round"/>
<path id="Stroke 4" fill-rule="evenodd" clip-rule="evenodd" d="M14.3413 23.5668C23.7274 23.5668 24.845 20.7545 24.845 14.6608C24.845 10.3896 24.2801 8.10416 20.7223 7.1217C20.3957 7.01854 20.0334 6.82205 19.7399 6.49907C19.2658 5.9796 18.9195 4.38433 17.775 3.9017C16.6304 3.4203 12.0337 3.4424 10.9076 3.9017C9.78269 4.36223 9.41672 5.9796 8.94269 6.49907C8.64918 6.82205 8.28813 7.01854 7.96023 7.1217C4.40251 8.10416 3.8376 10.3896 3.8376 14.6608C3.8376 20.7545 4.95514 23.5668 14.3413 23.5668Z" stroke="black" stroke-width="1.5" stroke-linecap="round" stroke-linejoin="round"/>
<path id="Stroke 11" d="M20.0719 10.5H20.0824" stroke="black" stroke-width="1.5" stroke-linecap="round" stroke-linejoin="round"/>
</g>
</g>
</svg>
