<svg width="48" height="48" viewBox="0 0 48 48" xmlns="http://www.w3.org/2000/svg">
<path fill-rule="evenodd" clip-rule="evenodd" d="M40.926 13.936C41.574 14.894 42.132 15.924 42.584 16.994C43.04 18.068 43.394 19.204 43.634 20.372C43.876 21.56 44 22.78 44 24C44 25.22 43.876 26.44 43.634 27.624C43.394 28.796 43.04 29.932 42.584 31.008C42.132 32.076 41.574 33.106 40.924 34.066C40.28 35.018 39.542 35.914 38.728 36.728C37.914 37.542 37.02 38.28 36.068 38.924C35.1 39.578 34.07 40.136 33.006 40.586C31.918 41.046 30.78 41.398 29.626 41.634C28.446 41.876 27.224 42 26 42C24.776 42 23.556 41.876 22.374 41.634C21.22 41.398 20.082 41.044 18.994 40.584C17.934 40.136 16.904 39.578 15.938 38.926C14.984 38.282 14.088 37.544 13.274 36.728L16.102 33.9C16.738 34.534 17.434 35.11 18.176 35.61C18.926 36.118 19.728 36.552 20.552 36.9C21.398 37.258 22.28 37.532 23.178 37.716C25.02 38.094 26.988 38.092 28.824 37.716C29.72 37.532 30.604 37.258 31.45 36.9C32.278 36.55 33.076 36.114 33.828 35.608C34.566 35.108 35.266 34.532 35.9 33.898C36.534 33.266 37.108 32.568 37.608 31.826C38.114 31.078 38.548 30.28 38.9 29.448C39.256 28.612 39.528 27.73 39.716 26.82C39.904 25.902 40 24.952 40 24C40 23.048 39.904 22.098 39.716 21.172C39.528 20.266 39.256 19.384 38.9 18.55C38.548 17.716 38.114 16.916 37.61 16.172C37.108 15.428 36.534 14.73 35.9 14.098C35.266 13.464 34.566 12.888 33.826 12.386C33.076 11.882 32.276 11.446 31.45 11.098C30.604 10.74 29.718 10.466 28.824 10.282C26.986 9.90598 25.016 9.90398 23.178 10.282C22.278 10.466 21.394 10.74 20.552 11.098C19.726 11.448 18.924 11.882 18.172 12.39C17.432 12.89 16.734 13.464 16.1 14.1C15.466 14.736 14.89 15.432 14.39 16.174C13.882 16.924 13.448 17.726 13.1 18.55C12.742 19.396 12.468 20.278 12.284 21.176C12.096 22.096 12 23.046 12 24C12 24.008 12.0005 24.0165 12.001 24.025C12.0015 24.0335 12.002 24.042 12.002 24.05H16L10 32L4 24.05H8.002C8.002 24.042 8.0015 24.0335 8.001 24.025C8.0005 24.0165 8 24.008 8 24C8 22.776 8.124 21.556 8.366 20.372C8.602 19.218 8.956 18.08 9.416 16.992C9.864 15.932 10.422 14.904 11.074 13.936C11.718 12.984 12.458 12.086 13.272 11.272C14.086 10.458 14.984 9.71798 15.938 9.07398C16.906 8.41998 17.934 7.86398 18.996 7.41398C20.082 6.95598 21.218 6.60198 22.376 6.36598C24.74 5.87798 27.266 5.87998 29.628 6.36598C30.78 6.60198 31.918 6.95598 33.008 7.41598C34.07 7.86598 35.1 8.42198 36.064 9.07398C37.02 9.71998 37.912 10.456 38.728 11.27C39.544 12.084 40.282 12.98 40.926 13.936ZM24 26V16H28V22H34V26H24Z"/>
</svg>
