<svg width="22" height="22" viewBox="0 0 22 22" fill="none" xmlns="http://www.w3.org/2000/svg">
<path fill-rule="evenodd" clip-rule="evenodd" d="M20.0344 6.29747C20.7602 6.85972 21.2055 7.69497 21.2813 8.60389L21.2921 8.82164V17.6064C21.2921 19.8706 19.5036 21.7122 17.2621 21.8314H15.1063C14.0761 21.8108 13.243 21.0091 13.1671 20.0016L13.1563 19.8489V16.7516C13.1563 16.4147 12.9061 16.1341 12.5713 16.0789L12.4738 16.0681H9.58022C9.23464 16.0789 8.95297 16.3281 8.90964 16.6531L8.8988 16.7516V19.8391C8.8988 19.9031 8.88688 19.9789 8.87714 20.0331L8.8663 20.0558L8.85439 20.1306C8.72547 21.0525 7.96713 21.7556 7.02463 21.8216L6.8838 21.8314H4.94463C2.68047 21.8314 0.827968 20.0558 0.708801 17.8231V8.82164C0.718551 7.89972 1.12047 7.04389 1.79213 6.44805L8.5413 1.02055C9.91714 -0.0725286 11.8455 -0.115862 13.2636 0.890555L13.438 1.02055L20.0344 6.29747ZM19.7744 17.7798L19.7864 17.6065V8.83148C19.7744 8.36673 19.5805 7.93231 19.2447 7.60839L19.1039 7.48814L12.4955 2.20148C11.6722 1.54064 10.5022 1.50923 9.63552 2.08231L9.47194 2.20148L2.88527 7.51089C2.50719 7.79148 2.27969 8.21398 2.22552 8.65814L2.21361 8.83148V17.6065C2.21361 19.0473 3.34027 20.2281 4.77136 20.3148H6.88386C7.12219 20.3148 7.32802 20.1534 7.35944 19.9259L7.38219 19.7309L7.39302 19.6756V16.7517C7.39302 15.5926 8.28136 14.6501 9.41886 14.5623H12.4739C13.6319 14.5623 14.5744 15.4517 14.6622 16.5892V19.849C14.6622 20.0765 14.8247 20.2726 15.0414 20.3148H17.0553C18.5069 20.3148 19.6878 19.2001 19.7744 17.7798Z" fill="#200E32"/>
</svg>
