<svg width="24" height="24" viewBox="0 0 24 24" xmlns="http://www.w3.org/2000/svg">
<path d="M12 9.75C13.2375 9.75 14.25 10.7625 14.25 12C14.25 13.2375 13.2375 14.25 12 14.25C10.7625 14.25 9.75 13.2375 9.75 12C9.75 10.7625 10.7625 9.75 12 9.75ZM5.25 9.75C6.4875 9.75 7.5 10.7625 7.5 12C7.5 13.2375 6.4875 14.25 5.25 14.25C4.0125 14.25 3 13.2375 3 12C3 10.7625 4.0125 9.75 5.25 9.75ZM18.75 9.75C19.9875 9.75 21 10.7625 21 12C21 13.2375 19.9875 14.25 18.75 14.25C17.5125 14.25 16.5 13.2375 16.5 12C16.5 10.7625 17.5125 9.75 18.75 9.75Z"/>
</svg>
