<svg width="20" height="20" viewBox="0 0 20 20" xmlns="http://www.w3.org/2000/svg">
<path d="M14.7558 10.2442C14.43 9.91832 13.9033 9.91832 13.5775 10.2442L12.2491 11.5725C11.6333 11.3892 10.4841 10.9725 9.75579 10.2442C9.02745 9.51582 8.61079 8.36665 8.42745 7.75082L9.75579 6.42248C10.0816 6.09665 10.0816 5.56998 9.75579 5.24415L6.42245 1.91082C6.09662 1.58498 5.56995 1.58498 5.24412 1.91082L2.98412 4.17082C2.66745 4.48748 2.48912 4.92248 2.49579 5.36665C2.51495 6.55332 2.82912 10.675 6.07745 13.9233C9.32579 17.1717 13.4475 17.485 14.635 17.505C14.6391 17.505 14.6541 17.505 14.6583 17.505C15.0983 17.505 15.5141 17.3317 15.8291 17.0167L18.0891 14.7567C18.415 14.4308 18.415 13.9042 18.0891 13.5783L14.7558 10.2442ZM14.65 15.8375C13.61 15.82 10.0516 15.5408 7.25579 12.7442C4.45079 9.93915 4.17912 6.36832 4.16245 5.34915L5.83329 3.67832L7.98829 5.83332L6.91079 6.91082C6.71162 7.10915 6.62662 7.39582 6.68412 7.67082C6.70412 7.76665 7.19329 10.0392 8.57662 11.4225C9.95995 12.8058 12.2325 13.295 12.3283 13.315C12.6058 13.3742 12.89 13.2883 13.0883 13.0892L14.1666 12.0117L16.3216 14.1667L14.65 15.8375Z"/>
</svg>
