<svg width="16" height="16" viewBox="0 0 16 16" fill="none" xmlns="http://www.w3.org/2000/svg">
<g id="24 / basic / trash">
<path id="icon" fill-rule="evenodd" clip-rule="evenodd" d="M5.99992 0.666656H9.99992C10.7363 0.666656 11.3333 1.26361 11.3333 1.99999V2.66666H13.3333C14.0696 2.66666 14.6666 3.26361 14.6666 3.99999V5.33332C14.6666 6.0697 14.0696 6.66666 13.3333 6.66666H13.2798L12.6666 14C12.6666 14.7364 12.0696 15.3333 11.3333 15.3333H4.66659C3.93021 15.3333 3.33325 14.7364 3.33555 14.0553L2.71983 6.66666H2.66659C1.93021 6.66666 1.33325 6.0697 1.33325 5.33332V3.99999C1.33325 3.26361 1.93021 2.66666 2.66659 2.66666H4.66658V1.99999C4.66658 1.26361 5.26354 0.666656 5.99992 0.666656ZM4.66659 14L4.05758 6.66666H11.9421L11.3356 13.9446L11.3333 14H4.66659ZM2.66659 5.33333V4H13.3333V5.33333H2.66659ZM9.99992 2V2.66666H5.99992V2H9.99992Z" fill="white"/>
</g>
</svg>
